PathFileType	4	(X/Y/Z)	C:\Git\research_data\Projects\squatting_fais\c3dfiles\036\SJ_pre1\markers_experimental.trc
DataRate	CameraRate	NumFrames	NumMarkers	Units	OrigDataRate	OrigDataStartFrame	OrigNumFrames
200.000000	200.000000	4	62	mm	200.000000	1925	2200
Frame#	Time	FHD			LBHD			RBHD			C7			T10			CLAV			LSHO			LUUPA			LMUPA			LDUPA			LLEP			LMEP			LRAD			LUL			LRFIN			RSHO			RUPA1			RMUPA			RDUPA			RLEP			RMEP			RRAD			RUL			RUFIN			LASI			RASI			USACR			LSACR			RSACR			LTHI1			LTHI2			LTHI3			LTHI4			LLFC			LMFC			LTIB1			LTIB2			LTIB3			LTIB4			LLMAL			LMMAL			LHEE			LMT1			LMT2			LMT5			RTHI			RTHI2			RTHI3			RTHI4			RLFC			RMFC			RTIB1			RTIB2			RTIB3			RTIB4			RLMAL			RMMAL			RHEE			RMT1			RMT2			RMT5			*61			
		X1	Y1	Z1	X2	Y2	Z2	X3	Y3	Z3	X4	Y4	Z4	X5	Y5	Z5	X6	Y6	Z6	X7	Y7	Z7	X8	Y8	Z8	X9	Y9	Z9	X10	Y10	Z10	X11	Y11	Z11	X12	Y12	Z12	X13	Y13	Z13	X14	Y14	Z14	X15	Y15	Z15	X16	Y16	Z16	X17	Y17	Z17	X18	Y18	Z18	X19	Y19	Z19	X20	Y20	Z20	X21	Y21	Z21	X22	Y22	Z22	X23	Y23	Z23	X24	Y24	Z24	X25	Y25	Z25	X26	Y26	Z26	X27	Y27	Z27	X28	Y28	Z28	X29	Y29	Z29	X30	Y30	Z30	X31	Y31	Z31	X32	Y32	Z32	X33	Y33	Z33	X34	Y34	Z34	X35	Y35	Z35	X36	Y36	Z36	X37	Y37	Z37	X38	Y38	Z38	X39	Y39	Z39	X40	Y40	Z40	X41	Y41	Z41	X42	Y42	Z42	X43	Y43	Z43	X44	Y44	Z44	X45	Y45	Z45	X46	Y46	Z46	X47	Y47	Z47	X48	Y48	Z48	X49	Y49	Z49	X50	Y50	Z50	X51	Y51	Z51	X52	Y52	Z52	X53	Y53	Z53	X54	Y54	Z54	X55	Y55	Z55	X56	Y56	Z56	X57	Y57	Z57	X58	Y58	Z58	X59	Y59	Z59	X60	Y60	Z60	X61	Y61	Z61	X62	Y62	Z62	

1926	9.625	-105.9266815185547	1541.169921875	-922.914733886719	-263.6383361816407	1474.671264648438	-992.5554809570315	-223.9839782714844	1500.15576171875	-847.665954589844	-304.0018310546876	1374.529541015625	-944.3988037109377	-323.2545166015626	1065.297973632813	-935.2601318359377	-160.2989654541016	1309.199340820313	-920.1099243164065	-196.9822235107422	1351.673828125	-1068.516967773438	-243.3632507324219	1229.533569335938	-1204.1748046875	-210.3615112304688	1192.328491210938	-1203.383544921875	-252.9342041015626	1170.771362304688	-1240.851684570313	-255.0722808837891	1115.205078125	-1257.472412109375	-314.9769897460938	1104.877685546875	-1226.37353515625	-140.8264617919922	915.787780761719	-1194.578369140625	-182.1608276367188	932.9096679687502	-1139.22314453125	-149.7716979980469	883.3333129882815	-1105.946411132813	-223.6219940185547	1350.801635742188	-775.6333618164065	-282.8141784667969	1242.525390625	-659.8864135742189	-244.2740478515626	1212.54443359375	-652.0511474609376	-285.3230590820313	1185.677734375	-618.6811523437501	-281.2718811035157	1116.866943359375	-592.2692260742189	-336.4957275390626	1087.756713867188	-637.2643432617189	-194.4378967285157	938.562438964844	-707.4860229492189	-154.3734588623047	926.6210937500002	-655.0196533203126	-163.4067077636719	894.207214355469	-745.7224121093751	-129.3336486816407	877.738708496094	-1049.91015625	-153.8998260498047	885.3625488281252	-779.0650024414065	-326.0354309082032	980.785339355469	-938.3714599609377	-344.7457885742188	954.1218872070315	-965.1235961914065	-350.1596374511719	958.3936157226565	-910.4113769531252	-214.6051940917969	751.9872436523439	-1137.151611328125	-190.4641571044922	671.7447509765626	-1138.522216796875	-147.7219696044922	671.7633666992189	-1117.49365234375	-223.4024810791016	622.1269531250001	-1141.1669921875	-272.0838317871094	469.762908935547	-1132.811279296875	-268.4591979980469	421.6414489746095	-986.313903808594	-207.5973663330079	285.5137634277344	-1069.526000976563	-227.4889373779297	249.6190338134766	-1147.190673828125	-205.1678771972657	242.830551147461	-1107.442016601563	-209.9941406250001	160.5920104980469	-1083.840209960938	-259.1515502929688	81.66601562500001	-1147.3291015625	-240.8563690185547	84.0270462036133	-1064.690551757813	-311.3085327148438	54.25334548950197	-1113.548095703125	-122.5942687988282	57.31212615966798	-1076.036376953125	-107.881950378418	56.09594345092775	-1123.294067382813	-146.0086364746094	33.95483398437501	-1173.56298828125	-298.5314636230469	709.6002197265626	-723.3187866210939	-261.5012512207032	655.1677856445314	-709.8146972656251	-229.1636199951172	659.1958007812501	-705.5192260742189	-283.9129943847657	576.2222900390626	-720.8176879882814	-272.8977966308594	463.3926086425782	-723.4926147460939	-236.3085479736329	443.603973388672	-866.6306762695315	-222.2420501708985	307.7863159179688	-743.9884033203126	-291.6143798828126	233.9615783691407	-695.6210327148439	-247.0398254394532	231.7054290771485	-710.0897216796876	-233.2873992919922	180.0010528564453	-735.8661499023439	-304.6975708007813	81.75282287597658	-714.5079345703126	-260.1600952148438	84.57510375976564	-785.480651855469	-341.3796997070313	53.1462860107422	-757.4044799804689	-143.7290191650391	53.54211044311525	-739.3876342773439	-152.5358276367188	57.92430496215822	-689.7773437500001	-197.8159179687501	33.92715454101563	-650.7981567382814	nan	nan	nan	
1927	9.630000000000001	-105.8976745605469	1541.154296875	-922.9786376953127	-263.5787353515626	1474.707397460938	-992.496765136719	-224.0728302001954	1499.95458984375	-847.7695922851565	-303.9781494140626	1374.528076171875	-944.399597167969	-323.1233215332032	1065.271606445313	-935.2839355468752	-160.2906036376953	1309.18115234375	-920.104919433594	-196.9942016601563	1351.685546875	-1068.496337890625	-243.3157043457032	1229.508056640625	-1204.178955078125	-210.3375854492188	1192.296752929688	-1203.353515625	-252.8271942138672	1170.736083984375	-1240.831787109375	-255.0751647949219	1115.190795898438	-1257.455322265625	-315.0438537597657	1104.94677734375	-1226.316040039063	-140.7486572265625	915.7942504882815	-1194.53564453125	-181.9686584472657	932.9107055664065	-1139.200073242188	-149.7440185546875	883.293884277344	-1105.885498046875	-223.5463409423829	1350.811767578125	-775.6546020507815	-282.7604675292969	1242.519775390625	-659.9067382812501	-244.2221679687501	1212.53369140625	-652.0871582031251	-285.2256469726563	1185.712524414063	-618.7504272460939	-281.2265930175782	1116.851318359375	-592.2667846679689	-336.4112548828126	1087.798706054688	-637.2838134765626	-194.3416442871094	938.5432128906252	-707.5148315429689	-154.2780456542969	926.6228637695315	-655.0247192382814	-163.3339538574219	894.181823730469	-745.7505493164064	-129.2280578613282	877.7449340820315	-1049.92822265625	-153.8016815185547	885.4096679687502	-779.067077636719	-325.9585876464844	980.788024902344	-938.3936767578127	-344.5711669921876	954.0592041015627	-965.1460571289065	-350.0458679199219	958.3992309570315	-910.3220825195315	-215.3174896240235	752.2362060546876	-1136.974975585938	-190.4019622802735	671.7284545898439	-1138.497192382813	-147.6100006103516	671.7392578125001	-1117.545166015625	-223.3330993652344	622.1086425781251	-1141.180786132813	-272.0277404785157	469.774627685547	-1132.868530273438	-268.3722229003907	421.6082458496095	-986.2856445312502	-207.5972290039063	285.4868774414063	-1069.54296875	-227.3187255859376	249.5661926269532	-1147.249633789063	-205.1238250732422	242.7159118652344	-1107.40283203125	-209.9898986816407	160.5814819335938	-1083.840209960938	-258.9850463867188	81.57504272460939	-1147.341918945313	-240.8749694824219	84.0242156982422	-1064.679809570313	-311.4565734863282	54.09521484375001	-1113.603149414063	-122.5752029418946	57.29080200195314	-1076.095581054688	-107.9407348632813	56.09126663208009	-1123.239379882813	-146.0459442138672	34.17975997924805	-1173.501586914063	-298.4646606445313	709.6002807617189	-723.3143920898439	-261.4909057617188	655.1522216796876	-709.7622680664064	-229.1026916503907	659.1489868164064	-705.4599609375001	-283.8680419921876	576.2661743164064	-720.8009033203126	-272.8534851074219	463.4007568359376	-723.4968261718751	-236.2344970703126	443.5726623535157	-866.6253051757815	-222.226303100586	307.7883911132813	-744.0035400390626	-291.5523376464844	233.9569854736329	-695.6406250000001	-246.9523010253907	231.6234588623047	-710.1595458984376	-233.2796173095704	179.9733581542969	-735.8834838867189	-304.6936950683594	81.75656127929689	-714.5110473632814	-260.2429504394532	84.59930419921876	-785.5307617187502	-341.3477478027344	53.11983871459962	-757.4252319335939	-143.7505493164063	53.51484680175783	-739.3594970703126	-152.6262359619141	58.08016204833986	-689.7310791015626	-197.8045196533204	33.94514465332032	-650.7995605468751	nan	nan	nan	
1928	9.635	-105.8305435180664	1541.136108398438	-922.9609985351565	-263.3324584960938	1474.717041015625	-992.5435791015627	-223.8776397705079	1499.942626953125	-847.7508544921877	-303.9486083984376	1374.532348632813	-944.4204101562502	-323.0626220703126	1065.257568359375	-935.266784667969	-160.2443237304688	1309.170776367188	-920.119812011719	-196.9016418457032	1351.67333984375	-1068.537719726563	-243.2394104003907	1229.48291015625	-1204.18408203125	-210.1673126220704	1192.257568359375	-1203.430297851563	-252.7959899902344	1170.703125	-1240.854125976563	-254.9279174804688	1115.166381835938	-1257.46435546875	-314.8415832519532	1104.84814453125	-1226.363403320313	-140.6661987304688	915.7935180664065	-1194.53369140625	-181.9651489257813	932.9230957031252	-1139.190307617188	-149.7472229003907	883.283142089844	-1105.8857421875	-223.4461364746094	1350.799072265625	-775.687683105469	-282.6695556640626	1242.517456054688	-659.9146728515626	-244.1806793212891	1212.534423828125	-652.0432739257814	-285.1713562011719	1185.73046875	-618.7591552734376	-281.1716613769532	1116.894165039063	-592.2738037109376	-336.2761840820313	1087.763061523438	-637.2946777343751	-194.2546997070313	938.5667114257815	-707.5502929687501	-154.2073364257813	926.627380371094	-654.9816284179689	-163.2720794677735	894.1678466796877	-745.7333984375001	-129.1766662597657	877.7360839843752	-1049.9140625	-153.7264556884766	885.339782714844	-778.998962402344	-325.9079284667969	980.9380493164065	-938.448425292969	-344.5463256835938	954.0576171875002	-965.097106933594	-350.0491943359376	958.387390136719	-910.353942871094	-215.1690521240235	752.2094116210939	-1136.990478515625	-190.3486938476563	671.7157592773439	-1138.509399414063	-147.6168365478516	671.6700439453126	-1117.544677734375	-223.2227783203126	622.0772094726564	-1141.146728515625	-271.8951721191407	469.7410583496095	-1132.79638671875	-268.3069152832032	421.5666503906251	-986.2888793945315	-207.5648345947266	285.4934997558594	-1069.571533203125	-227.3432922363282	249.6227722167969	-1147.262817382813	-205.1003723144532	242.8216552734376	-1107.44775390625	-209.9827575683594	160.5472259521485	-1083.8486328125	-259.0625305175782	81.63147735595705	-1147.333129882813	-240.8406372070313	84.02674102783205	-1064.64697265625	-311.2692871093751	54.27597808837892	-1113.4765625	-122.5749816894532	57.28286743164064	-1076.09228515625	-108.2267227172852	56.40058898925783	-1123.244873046875	-145.9783935546875	33.98510360717774	-1173.553833007813	-298.4577941894532	709.5723876953126	-723.3114624023439	-261.4397888183594	655.1688842773439	-709.7827148437501	-229.0434722900391	659.1542968750001	-705.4678955078126	-283.8867187500001	576.2409057617189	-720.7991943359376	-272.8520507812501	463.4012145996095	-723.4954223632814	-236.2584838867188	443.5830993652345	-866.6445312500002	-222.1564025878907	307.8162536621094	-744.0640869140626	-291.5750732421876	234.0018005371094	-695.6358642578126	-246.9130096435547	231.6370544433594	-710.1619262695314	-233.292709350586	180.0178833007813	-735.8610839843751	-304.6807556152344	81.74131774902345	-714.5557250976564	-260.1339111328126	84.51343536376955	-785.5437622070315	-341.3487548828126	53.14667129516603	-757.4597167968751	-143.7172241210938	53.49110794067384	-739.3915405273439	-152.629135131836	58.07137680053712	-689.7146606445314	-197.7906646728516	33.94101333618165	-650.8403320312501	nan	nan	nan	
1929	9.640000000000001	-105.4890823364258	1541.215942382813	-923.0043945312502	-263.3781738281251	1474.729370117188	-992.545349121094	-223.8336486816407	1499.925170898438	-847.7336425781252	-303.9272766113282	1374.546264648438	-944.4200439453127	-322.9764099121094	1065.266235351563	-935.2673950195315	-160.1935424804688	1309.130126953125	-920.0737915039065	-196.776351928711	1351.64990234375	-1068.577514648438	-243.1209869384766	1229.474487304688	-1204.204345703125	-210.1241607666016	1192.255859375	-1203.42919921875	-252.6470184326172	1170.6806640625	-1240.852172851563	-255.2777404785157	1115.176147460938	-1257.543334960938	-314.8897705078126	1104.911987304688	-1226.337768554688	-140.5951385498047	915.7315673828127	-1194.57958984375	-181.8409118652344	932.8803710937502	-1139.147583007813	-149.6089324951172	883.279724121094	-1105.876708984375	-223.3804626464844	1350.81298828125	-775.6827392578127	-282.5080566406251	1242.538452148438	-659.9343261718751	-243.9965820312501	1212.609741210938	-652.0223999023439	-285.0310363769532	1185.728515625	-618.7790527343751	-281.1056518554688	1116.903442382813	-592.3121337890626	-336.1923522949219	1087.76220703125	-637.3012084960939	-194.1829071044922	938.5552368164065	-707.5702514648439	-154.1777038574219	926.6170654296877	-654.9741821289064	-163.2470703125	894.198181152344	-745.7352294921876	-129.1446838378907	877.7422485351565	-1049.8896484375	-153.7071990966797	885.3514404296877	-778.9805297851565	-325.8392944335938	980.9494628906252	-938.3865356445315	-344.6777343750001	954.1054687500002	-965.0773925781252	-349.9107666015626	958.411071777344	-910.3931884765627	-215.0888061523438	752.2134399414064	-1136.934448242188	-190.2657470703125	671.7127685546876	-1138.498413085938	-147.5379333496094	671.7341918945314	-1117.580810546875	-223.2135009765626	622.0819702148439	-1141.1650390625	-271.8656921386719	469.7633666992189	-1132.806518554688	-268.2848205566407	421.5479431152345	-986.2644653320315	-207.531723022461	285.4855651855469	-1069.538330078125	-227.2314453125001	249.6241912841797	-1147.28857421875	-205.0863189697266	242.7753601074219	-1107.446166992188	-209.9343414306641	160.5818786621094	-1083.851318359375	-258.9126586914063	81.57850646972658	-1147.344482421875	-240.8099517822266	84.02245330810548	-1064.65576171875	-311.4568481445313	54.10840988159181	-1113.566162109375	-122.5846786499024	57.26307296752931	-1076.070068359375	-107.881591796875	56.06919097900392	-1123.310546875	-145.9673461914063	34.02800369262696	-1173.560791015625	-298.3843688964844	709.5786132812501	-723.3095703125001	-261.4205932617188	655.1546630859376	-709.7634277343751	-228.9545593261719	659.1024780273439	-705.5007934570314	-283.8112182617188	576.2283935546876	-720.8221435546876	-272.8332214355469	463.380096435547	-723.5267944335939	-236.2281951904297	443.6048889160157	-866.7175903320315	-222.1455078125001	307.7810058593751	-744.0489501953126	-291.5279846191407	234.0372161865235	-695.6362915039064	-246.9090881347657	231.6416473388672	-710.1755981445314	-233.3267059326172	180.0194702148438	-735.9123535156251	-304.6927490234376	81.78189849853517	-714.5650024414064	-260.1602783203126	84.52847290039064	-785.574157714844	-341.3150024414063	53.20372772216798	-757.4436645507814	-143.748764038086	53.48543167114259	-739.3628540039064	-152.6376037597657	58.07699584960939	-689.7385864257814	-197.8073425292969	33.91757965087891	-650.7943115234376	nan	nan	nan	
